<?xml version="1.0" encoding="UTF-8"?>
<svg id="Layer_2" data-name="Layer 2" xmlns="http://www.w3.org/2000/svg" viewBox="0 0 808.73 145.96">
  <defs>
    <style>
      .cls-1 {
        fill: #0d0e0a;
      }

      .cls-2 {
        fill: #f8f1e0;
      }

      .cls-3 {
        fill: #f44c23;
      }

      .cls-4 {
        fill: #f7efde;
      }
    </style>
  </defs>
  <g id="Layer_1-2" data-name="Layer 1">
    <g>
      <path class="cls-3" d="M101.18,7.45c-2.54,1.54-7,3.82-8.51,6.27-2.18,3.55-2.01,9.66-2.79,13.78-.04.22-.08.34-.28.47-2.26-.97-4.73-1.05-7.16-.93-15.34.73-31.12,3.7-46.52,4.52-2.88.84-9.81-.11-10.74,3.57-.17.68-.25,2.64-.28,3.48-.32,7.31.15,14.75.2,22.04.12,15.28.3,30.52.57,45.77.05,2.98-.4,7.33.08,10.09.2,1.19.76,1.77,1.63,2.51,7.87,5.22,15.44,10.95,23.42,15.94,1.35.38,3.05-.2,4.44-.48,17.23-3.48,35.48-7.57,52.51-11.9,2.15-.55,5.38-.79,5.83-3.4.64-3.71.25-8.7.41-12.58.72-16.75,1.53-33.53,2.28-50.27.21-4.82.66-9.92.75-14.69.04-2.09.09-3.75-1.95-4.84l-13.58-5.03-.13-.3,1.81-10.07c3.48-1.99,6.98-3.98,10.51-5.89.25-.14.6-.09.69-.15,6.07,4.52,11.47,10.1,15.79,16.33,23.39,33.71,14.62,79.58-19.42,102.38-31.52,21.11-72.88,13.18-95.71-16.45C-10.05,85.08-2.96,37.86,30.48,14.27,47.7,2.12,68.83-1.47,89.31,3.4c4.06.97,8.03,2.42,11.86,4.05Z"/>
      <path class="cls-1" d="M114.36,15.36c-.1.05-.44,0-.69.15-3.53,1.91-7.03,3.9-10.51,5.89l-1.81,10.07.13.3,13.58,5.03c2.04,1.1,1.99,2.75,1.95,4.84-.09,4.77-.54,9.87-.75,14.69-.74,16.75-1.56,33.52-2.28,50.27-.17,3.88.22,8.87-.41,12.58-.45,2.61-3.68,2.86-5.83,3.4-17.03,4.33-35.28,8.43-52.51,11.9-1.39.28-3.09.86-4.44.48-7.98-5-15.55-10.73-23.42-15.94-.87-.75-1.43-1.32-1.63-2.51-.47-2.77-.03-7.12-.08-10.09-.26-15.25-.45-30.49-.57-45.77-.06-7.28-.53-14.73-.2-22.04.04-.84.11-2.8.28-3.48.94-3.68,7.86-2.73,10.74-3.57,15.4-.82,31.18-3.79,46.52-4.52,2.43-.11,4.9-.04,7.16.93.2-.13.23-.25.28-.47.79-4.12.61-10.23,2.79-13.78,1.51-2.45,5.98-4.74,8.51-6.27,4.05-2.46,8.26-4.71,12.3-7.19,4.87-1.91,10.14,7.02,7.44,11.02-.84,1.24-5.04,3.26-6.56,4.08ZM118.31,8.4c-.19-1.96-1.48-3.72-3.01-4.9-.01,2.02,1.12,4.08,3.01,4.9ZM107.2,8.02c-1.31.76-2.65,1.48-3.96,2.26-2.19,1.31-4.42,2.36-6.4,3.96-1.53,1.23-1.5,1.25-2.07,3.2s-.62,3.66-.94,5.65c-.24,1.5-.53,3.01-.75,4.52-.28,1.92-.56,3.85-.93,5.76.06.87,3.31,1.08,4.04,1.01.41-.04.83-.15,1.23-.28.45-.34.46-2.53.56-3.11.26-1.44.5-2.89.75-4.33.27-1.57.63-4.94,1.13-6.22.43-1.09,2.01-2.42,3.01-3.01,1.94-1.15,4.53-2.3,6.59-3.39,1.4-.74,2.97-1.79,4.33-2.45.58-.28,1.67-.43,2.26-.85-.91-.64-1.81-1.33-2.42-2.29-.69-1.08-.89-2.33-1.45-3.45-1.57.86-3.13,1.76-4.68,2.67-.17.1-.25.31-.31.35ZM89.31,31.01l-4.04-.96c-17.79,1.83-35.65,3.09-53.41,5.18l7.99,3.65c16.26-2.34,32.68-3.51,48.94-5.81l.51-2.06ZM100.05,36.65c-3.22,1.21-6.43.92-9.61-.19-.19-.07-.37-.13-.57-.19-.08-.14-.31-.14-.38-.19-.16-.13-.21-.49-.65-.39-10.91,1.88-21.98,2.57-32.97,3.78-3.67.41-7.33,1.06-11.02,1.32l8.59,3.76,55.63-6.59-8.18-3.21c-.1,0-.67,1.62-.86,1.89ZM35.44,54.35c.03.12.28,2.28.75,1.69l.91-14.94c-2.61-1.75-5.7-2.76-8.63-3.89l6.64,16.82c.03.19.26.24.33.32ZM113.61,40.6l-59.8,7.34-.66,83.44,57.17-12.99,3.29-77.8ZM48.63,45.69l-8.29-3.5c-.98,1.72-.6,3.79-.75,5.66-.23,2.98-.58,5.96-.75,8.95l9.79-11.11ZM49.19,128.56c.13.31.28,1.45.75,1.03l.56-80.33s-.42.18-.5.25c-2.75,2.45-5.43,6.4-8.06,9.17-2.85,3-5.92,5.89-8.23.31l-5.61-14.07.75,69.88,7.16-5.28-.12-.39c-.88-.59-4.09-2.25-2.98-3.56.63-.74,1.81,0,2.47.34,3.57,1.8,4.14,2.86,5.9,6.25.11.21.04.6.38.75.02.06-.02.13,0,.19.52,1.54,1.53,3.38,2.45,4.71.13.29.3.57.38.75.26.63.49,1.37.94,1.88.02.06-.02.13,0,.19.21.55.58,1.23.94,1.7.07.17.1.36.19.57.81,1.93,1.85,3.73,2.64,5.65ZM38.06,112c-.86-.61-6.57,4.75-7.52,5.54l15.06,10.27-7.55-15.81Z"/>
      <path class="cls-4" d="M113.61,40.6l-3.29,77.8-57.17,12.99.66-83.44,59.8-7.34ZM106.26,56.99s.08-.25-.11-.39c-.51-.36-1.72-.33-2.22,0-.22.14-.08.37-.11.39-.06.06-.13.12-.19.19-.54.11-1.11.61-1.55.95-.03.02-.71.53-.34.56-3.44,2.82-6.97,5.52-10.45,8.29-.09-1.39-.65-4.05-2.62-2.81-1.09.69-.89,5.11.03,6.02,1.45,1.43,3.33-.08,4.75-.67-1.43,3.04.24,8.63,4.39,7.78.71-.15,1.65-1.14,2.21-1.65,0,0,.06.2.26.01,1.97-1.76,2.15-7.82.31-9.68-.2-.21-.37-.11-.39-.12-.18-.14-.3-.32-.38-.38-.03-.42-.12-.52.23-.82.75-.65,1.8-1.13,2.41-2l.19-.19c.73.05,1.11-.7,1.61-1.13s.65-.55,1.03-.95c.06-.06.13-.12.19-.19,1.09-.37,1.53-.95,1.49-2.14-.03-.98-.43-.75-.55-.87-.06-.06-.14-.14-.19-.19ZM70.1,66.78v.75c-.57-.05-1.27.8-1.51,1.32-.06.06-.13.12-.19.19-2.5,2.63-2.54,6.76-.97,9.92.14.28.37.89.78.81.07.12.11.26.19.38.11.17.64,1.1.69,1.14.09.08,2.12.92,2.24.93.52.05,2.59-.81,3.05-1.18.09-.07.02-.3.05-.32.06-.06.13-.13.19-.19.2-.2.3-.27.57-.57.13-.15.29-.28.38-.38.32-.37.74-.66,1.01-1.15,1.18-2.1.88-5.51.26-7.75-.05-.17-.4-.46-.33-.51.66-.16,1.34.6,1.66.73.68.28,2.93,1.09,3.55,1.14.45.03,1.44-.17,1.82-.37.21-.11.12-.36.14-.37.31-.22.72-.39,1.01-.8.69-1.01.8-1.94.94-3.03.02-.17.28-.32.27-.56,0-.29-.35-.72-.35-1.07l-.18.19c-.7-.92-1.52-1.5-2.69-.9s-.44,2.01-.91,2.96l-.59-.02c-4.4-2.08-8.8-4.14-13.21-6.2-.91-.43-3.64-2.07-4.35-2.05-1.63.04-1.96,1.42-1.44,2.76,2.59,1.49,5.27,2.87,7.93,4.22ZM78.2,83.74c-4.66,2.82-9.32,8.7-10.49,14.09-.66,3.02-.16,6.8,3.61,7.01,5.78.32,8.71-8.55,16.58-7.91,4.48.36,6.94,4.35,11.4,2.45.28-.12.36-.23.57-.38.07-.05.12-.13.19-.19,3.01-1.75,2.97-6.51,2.13-9.57-2.41-8.74-12.09-10.55-19.79-7.81-1.44.51-2.47,1.19-3.81,1.85-.1.05-.8.3-.38.47Z"/>
      <path class="cls-4" d="M41.28,112.18c-1.76-3.39-2.33-4.45-5.9-6.25-.66-.33-1.84-1.08-2.47-.34-1.11,1.3,2.1,2.97,2.98,3.56l.12.39-7.16,5.28-.75-69.88,5.61,14.07c2.31,5.58,5.38,2.69,8.23-.31,2.63-2.76,5.31-6.72,8.06-9.17.08-.07.48-.28.5-.25l-.56,80.33c-.47.41-.63-.72-.75-1.03l-.39-1.92c-.61-.9-1.33-2.2-1.65-3.29-.13-.45.13-.51-.59-.44-.08-.2-.12-.39-.19-.57-.2-.5-.38-1.77-.94-1.7-.02-.05.02-.13,0-.19-.23-.61-.51-1.42-.57-2.07l-.37.19c-.08-.19-.25-.47-.38-.75-.61-1.4-1.18-2.82-1.92-4.21-.14-.26-.07-.6-.53-.5-.02-.06.02-.13,0-.19-.08-.27-.07-.65-.19-.94l-.19.19ZM44.44,107.99c1.09-1.8-.26-2.53-1.59-3.5-2.6-1.9-5.83-3.32-8.41-5.34-1.36-.7-2.4.17-1.64,1.64,1.18,2.3,7.7,5.04,9.7,7.06.6.28,1.34.55,1.94.13Z"/>
      <path class="cls-4" d="M100.05,36.65c.19-.27.76-1.89.86-1.89l8.18,3.21-55.63,6.59-8.59-3.76c3.69-.26,7.35-.91,11.02-1.32,11-1.21,22.06-1.9,32.97-3.78.44-.1.49.26.65.39.07.19.23.15.38.19.2.06.37.12.57.19-.1.47.22.4.51.51,1.97.77,5.79,1.04,7.83.54.5-.12.97-.46,1.26-.87Z"/>
      <path class="cls-4" d="M89.31,31.01l-.51,2.06c-16.26,2.3-32.68,3.47-48.94,5.81l-7.99-3.65c17.76-2.09,35.61-3.36,53.41-5.18l4.04.96Z"/>
      <path class="cls-4" d="M38.06,112l7.55,15.81-15.06-10.27c.95-.79,6.66-6.16,7.52-5.54Z"/>
      <path class="cls-4" d="M48.63,45.69l-9.79,11.11c.17-2.99.52-5.97.75-8.95.15-1.88-.23-3.94.75-5.66l8.29,3.5Z"/>
      <path class="cls-2" d="M103.25,10.28l6.22,3.77c-2.07,1.09-4.65,2.24-6.59,3.39l-6.03-3.2c1.98-1.59,4.21-2.64,6.4-3.96Z"/>
      <path class="cls-4" d="M99.86,20.45c-.5,1.27-.86,4.64-1.13,6.22l-4.9-3.58c.32-1.99.36-3.65.94-5.65,1.64,1.07,3.23,2.31,5.09,3.01Z"/>
      <path class="cls-3" d="M107.2,8.02l2.13,1.17c1.58.49,3.09,1.48,4.46,2.41-1.36.66-2.93,1.71-4.33,2.45l-6.22-3.77c1.31-.78,2.64-1.5,3.96-2.26Z"/>
      <path class="cls-4" d="M97.97,31c-.1.58-.11,2.76-.56,3.11-.39.13-.81.24-1.23.28-.72.06-3.98-.15-4.04-1.01.37-1.91.65-3.84.93-5.76,1.74.92,3.1,2.62,4.9,3.39Z"/>
      <path class="cls-3" d="M96.84,14.23l6.03,3.2c-1,.6-2.58,1.92-3.01,3.01-1.85-.7-3.44-1.95-5.09-3.01.57-1.95.54-1.97,2.07-3.2Z"/>
      <path class="cls-3" d="M98.73,26.67c-.25,1.44-.5,2.89-.75,4.33-1.8-.77-3.16-2.47-4.9-3.39.22-1.51.51-3.02.75-4.52l4.9,3.58Z"/>
      <path class="cls-4" d="M107.2,8.02c.05-.03.14-.25.31-.35,1.55-.9,3.11-1.81,4.68-2.67.55,1.13.76,2.37,1.45,3.45.61.96,1.5,1.65,2.42,2.29-.59.41-1.68.57-2.26.85-1.37-.94-2.88-1.93-4.46-2.41l-2.13-1.17Z"/>
      <path class="cls-2" d="M35.44,54.35c-.07-.08-.3-.13-.33-.32l-6.64-16.82c2.94,1.13,6.03,2.14,8.63,3.89l-.91,14.94c-.47.59-.72-1.57-.75-1.69.1.12.2.41.28.38l.28-.48.86-13.09c-.84-.59-7.31-3.5-7.63-3.19,1.62,5.51,4.68,10.88,6.21,16.39Z"/>
      <path class="cls-4" d="M118.31,8.4c-1.89-.82-3.02-2.87-3.01-4.9,1.53,1.18,2.82,2.93,3.01,4.9Z"/>
      <path class="cls-2" d="M100.05,36.65c-.29.4-.76.75-1.26.87-2.04.5-5.86.23-7.83-.54-.3-.12-.61-.05-.51-.51,3.18,1.11,6.39,1.4,9.61.19Z"/>
      <path class="cls-2" d="M41.66,113.12c.46-.1.39.23.53.5.73,1.39,1.31,2.81,1.92,4.21-.92-1.32-1.93-3.17-2.45-4.71Z"/>
      <path class="cls-2" d="M46.55,122.91c.72-.08.46-.01.59.44.32,1.09,1.05,2.39,1.65,3.29l.39,1.92c-.79-1.93-1.83-3.72-2.64-5.65Z"/>
      <path class="cls-2" d="M45.42,120.47c-.45-.51-.68-1.26-.94-1.88l.37-.19c.06.65.34,1.46.57,2.07Z"/>
      <path class="cls-2" d="M45.42,120.65c.57-.07.74,1.19.94,1.7-.36-.46-.73-1.15-.94-1.7Z"/>
      <path class="cls-2" d="M41.66,112.93c-.34-.15-.27-.55-.38-.75l.19-.19c.12.29.11.67.19.94Z"/>
      <path class="cls-2" d="M89.88,36.27c-.14-.04-.31,0-.38-.19.06.05.3.05.38.19Z"/>
      <path class="cls-1" d="M78.2,83.74c7.43-4.5,19.96-5.13,23.36,4.61,1.07,3.06,1.24,8.26-1.51,10.46-.07.05-.12.14-.19.19-.27,0-.48.11-.57.38-4.46,1.91-6.92-2.09-11.4-2.45-7.87-.63-10.8,8.24-16.58,7.91-3.77-.21-4.27-4-3.61-7.01,1.17-5.39,5.83-11.27,10.49-14.09ZM83.85,94.66c.32-.43-1.63-1.41-1.94-1.54-2.67-1.09-6.25-.88-8.77.53-4.11,2.28-4.34,12.04,1.57,7.22.7-.57,1.29-1.39,1.98-1.97,2.14-1.82,4.37-3.54,7.16-4.24Z"/>
      <path class="cls-1" d="M70.1,66.78c-2.66-1.35-5.34-2.73-7.93-4.22-.52-1.33-.19-2.72,1.44-2.76.71-.02,3.44,1.63,4.35,2.05,4.4,2.07,8.81,4.12,13.21,6.2l.59.02c.46-.95-.22-2.37.91-2.96s1.99-.02,2.69.9c.03,1.31-.09,2.73-.72,3.89-.3.56-.77.84-.98,1.38-.46-.05-.81.31-1.24.37-1.16.16-4.3-1.11-5.49-1.65-.18-.08-.95-.66-1-.6,1.07,2.66,1.45,5.27.62,8.06-.25.82-.68,1.36-.99,2.11-.08.1-.24.23-.38.38l-.57.57c-.06.06-.13.13-.19.19-2.09,1.33-4.32,1.38-6.03-.57-.08-.12-.12-.26-.19-.38-.21-.38-.53-.69-.7-1.09-1.19-2.9-.81-7.01.89-9.64.06-.06.12-.13.19-.19.68-.64,1.47-1.42,2.45-1.51.13-.56-.5-.34-.94-.56Z"/>
      <path class="cls-1" d="M106.26,56.99c.05.05.13.13.19.19.58,1.53-.07,2.03-.94,3.01-.06.06-.13.13-.19.19l-2.64,2.07-.19.19-3.11,2.25c-.34.5.35.47.48.57.08.06.2.24.38.38,1.84,2.9,1.83,6.97-.19,9.79-.56.52-1.5,1.51-2.21,1.65-4.15.85-5.82-4.74-4.39-7.78-1.42.59-3.3,2.1-4.75.67-.92-.9-1.12-5.32-.03-6.02,1.97-1.25,2.52,1.41,2.62,2.81,3.48-2.77,7.01-5.47,10.45-8.29.6-.49,1.31-.92,1.88-1.51.06-.06.13-.12.19-.19.93-.56,1.5-.4,2.45,0Z"/>
      <path class="cls-2" d="M78.2,83.74c-.42-.17.28-.42.38-.47,1.33-.66,2.36-1.33,3.81-1.85,7.7-2.74,17.38-.93,19.79,7.81.84,3.05.88,7.82-2.13,9.57,2.76-2.2,2.58-7.4,1.51-10.46-3.4-9.74-15.94-9.1-23.36-4.61Z"/>
      <path class="cls-2" d="M68.4,69.05c-1.69,2.64-2.08,6.74-.89,9.64.17.41.49.72.7,1.09-.41.08-.65-.54-.78-.81-1.56-3.16-1.53-7.29.97-9.92Z"/>
      <path class="cls-2" d="M85.36,66.03l.18-.19c0,.35.35.78.35,1.07,0,.24-.25.39-.27.56-.14,1.08-.25,2.02-.94,3.03-.28.41-.7.58-1.01.8-.02.01.07.26-.14.37-.37.2-1.37.4-1.82.37-.62-.04-2.87-.86-3.55-1.14-.32-.13-1-.9-1.66-.73-.07.06.28.34.33.51.62,2.24.92,5.65-.26,7.75-.27.49-.69.78-1.01,1.15.32-.75.75-1.29.99-2.11.84-2.78.45-5.4-.62-8.06.05-.06.82.52,1,.6,1.18.54,4.33,1.81,5.49,1.65.42-.06.78-.42,1.24-.37.21-.54.67-.81.98-1.38.63-1.17.75-2.59.72-3.89Z"/>
      <path class="cls-2" d="M100.23,65.84s.19-.08.39.12c1.83,1.87,1.65,7.92-.31,9.68-.21.19-.25-.02-.26-.01,2.02-2.82,2.03-6.89.19-9.79Z"/>
      <path class="cls-2" d="M68.4,80.16c1.7,1.94,3.94,1.9,6.03.57-.02.02.04.25-.05.32-.46.37-2.53,1.23-3.05,1.18-.12-.01-2.15-.85-2.24-.93-.05-.04-.58-.97-.69-1.14Z"/>
      <path class="cls-2" d="M106.45,57.18c.12.12.52-.1.55.87.04,1.19-.4,1.77-1.49,2.14.87-.98,1.52-1.48.94-3.01Z"/>
      <path class="cls-2" d="M103.81,56.99s-.11-.25.11-.39c.51-.33,1.71-.36,2.22,0,.2.14.09.37.11.39-.95-.4-1.52-.56-2.45,0Z"/>
      <path class="cls-2" d="M70.1,66.78c.44.22,1.07,0,.94.56-.97.09-1.77.87-2.45,1.51.23-.52.94-1.37,1.51-1.32v-.75Z"/>
      <path class="cls-2" d="M102.5,62.64c-.6.87-1.65,1.35-2.41,2-.35.3-.26.4-.23.82-.13-.1-.81-.07-.48-.57l3.11-2.25Z"/>
      <path class="cls-2" d="M105.32,60.38c-.38.39-.54.52-1.03.95s-.87,1.17-1.61,1.13l2.64-2.07Z"/>
      <path class="cls-2" d="M103.63,57.18c-.57.59-1.28,1.01-1.88,1.51-.37-.02.31-.54.34-.56.44-.34,1-.84,1.55-.95Z"/>
      <path class="cls-2" d="M74.62,80.53l.57-.57c-.26.29-.37.36-.57.57Z"/>
      <path class="cls-2" d="M99.86,98.99c-.21.15-.29.26-.57.38.08-.27.29-.37.57-.38Z"/>
      <path class="cls-1" d="M44.44,107.99c-.61.41-1.34.14-1.94-.13-2-2.02-8.52-4.76-9.7-7.06-.76-1.47.29-2.34,1.64-1.64,2.58,2.02,5.8,3.44,8.41,5.34,1.33.97,2.68,1.7,1.59,3.5Z"/>
      <path class="cls-4" d="M35.44,54.35c-1.54-5.51-4.6-10.88-6.21-16.39.33-.31,6.8,2.6,7.63,3.19l-.86,13.09-.28.48c-.08.03-.18-.26-.28-.38Z"/>
      <path class="cls-3" d="M83.85,94.66c-2.79.7-5.02,2.42-7.16,4.24-.69.58-1.28,1.4-1.98,1.97-5.91,4.82-5.68-4.94-1.57-7.22,2.53-1.4,6.11-1.62,8.77-.53.32.13,2.26,1.11,1.94,1.54Z"/>
    </g>
    <g>
      <path d="M215.99,36.42v17.17h-17.92v57.5h-17.07v-57.5h-17.92v-17.17h52.91Z"/>
      <path d="M261.75,36.42h17.07v74.67h-17.07v-28.8h-18.67v28.8h-17.07V36.42h17.07v28.8h18.67v-28.8Z"/>
      <path d="M341.64,49.75v28.06c0,5.65-3.52,10.45-8.43,12.37l8.43,20.91h-18.13l-8.11-19.95h-9.49v19.95h-17.07V36.42h39.47c7.36,0,13.33,5.97,13.33,13.33ZM324.58,70.55v-13.55c0-1.92-1.6-3.41-3.52-3.41h-15.15v20.37h15.15c1.92,0,3.52-1.49,3.52-3.41Z"/>
      <path d="M368.42,53.59v11.63h21.44v17.07h-21.44v11.73h29.87v17.07h-46.94V36.42h46.94v17.17h-29.87Z"/>
      <path d="M464.1,111.09h-17.07l-2.99-10.77h-18.45l-2.99,10.77h-17.07l20.8-74.67h16.96l20.8,74.67ZM439.25,82.93l-4.48-15.89-4.37,15.89h8.85Z"/>
      <path d="M524.05,49.75v48c0,7.36-5.97,13.33-13.23,13.33h-39.58V36.42h39.58c7.25,0,13.23,5.97,13.23,13.33ZM506.99,57.11c0-2.03-1.6-3.52-3.52-3.52h-15.15v40.43h15.15c1.92,0,3.52-1.6,3.52-3.63v-33.28Z"/>
      <path d="M563.31,36.42h17.07v61.34c0,7.36-5.97,13.33-13.33,13.33h-20.27c-7.36,0-13.23-5.97-13.23-13.33v-15.47h17.07v11.73h12.69v-57.6Z"/>
      <path d="M626.14,36.42h17.07v61.44c0,7.36-5.97,13.23-13.33,13.23h-26.24c-7.36,0-13.23-5.87-13.23-13.23v-61.44h17.07v57.6h18.67v-57.6Z"/>
      <path d="M670.3,111.09h-17.07V36.42h17.07v74.67Z"/>
      <path d="M733.13,85.49v12.27c0,7.36-5.97,13.33-13.33,13.33h-26.14c-7.36,0-13.33-5.97-13.33-13.33v-48c0-7.36,5.97-13.33,13.33-13.33h26.14c7.36,0,13.33,5.97,13.33,13.33v12.27h-17.07v-8.43h-18.67v40.43h18.67v-8.53h17.07Z"/>
      <path d="M760.22,53.59v11.63h21.44v17.07h-21.44v11.73h29.87v17.07h-46.94V36.42h46.94v17.17h-29.87Z"/>
    </g>
    <g>
      <path d="M798.26,19.98v2.52h-2.63v8.44h-2.5v-8.44h-2.63v-2.52h7.77Z"/>
      <path d="M808.73,19.98v10.96h-2.5v-4.9l-1.6,3.85h-.8l-1.6-3.85v4.9h-2.5v-10.96h2.5l1.99,4.81,2-4.81h2.5Z"/>
    </g>
  </g>
</svg>