<?xml version="1.0" encoding="UTF-8"?>
<svg id="Layer_2" data-name="Layer 2" xmlns="http://www.w3.org/2000/svg" viewBox="0 0 645.65 91.11">
  <g id="Layer_1-2" data-name="Layer 1">
    <g>
      <g>
        <path d="M52.91,16.44v17.17h-17.92v57.5h-17.07v-57.5H0v-17.17h52.91Z"/>
        <path d="M98.67,16.44h17.07v74.67h-17.07v-28.8h-18.67v28.8h-17.07V16.44h17.07v28.8h18.67v-28.8Z"/>
        <path d="M178.57,29.77v28.06c0,5.65-3.52,10.45-8.43,12.37l8.43,20.91h-18.13l-8.11-19.95h-9.49v19.95h-17.07V16.44h39.47c7.36,0,13.33,5.97,13.33,13.33ZM161.5,50.57v-13.55c0-1.92-1.6-3.41-3.52-3.41h-15.15v20.37h15.15c1.92,0,3.52-1.49,3.52-3.41Z"/>
        <path d="M205.34,33.61v11.63h21.44v17.07h-21.44v11.73h29.87v17.07h-46.94V16.44h46.94v17.17h-29.87Z"/>
        <path d="M301.03,91.11h-17.07l-2.99-10.77h-18.45l-2.99,10.77h-17.07l20.8-74.67h16.96l20.8,74.67ZM276.17,62.95l-4.48-15.89-4.37,15.89h8.85Z"/>
        <path d="M360.98,29.77v48c0,7.36-5.97,13.33-13.23,13.33h-39.58V16.44h39.58c7.25,0,13.23,5.97,13.23,13.33ZM343.91,37.13c0-2.03-1.6-3.52-3.52-3.52h-15.15v40.43h15.15c1.92,0,3.52-1.6,3.52-3.63v-33.28Z"/>
        <path d="M400.23,16.44h17.07v61.34c0,7.36-5.97,13.33-13.33,13.33h-20.27c-7.36,0-13.23-5.97-13.23-13.33v-15.47h17.07v11.73h12.69V16.44Z"/>
        <path d="M463.06,16.44h17.07v61.44c0,7.36-5.97,13.23-13.33,13.23h-26.24c-7.36,0-13.23-5.87-13.23-13.23V16.44h17.07v57.6h18.67V16.44Z"/>
        <path d="M507.22,91.11h-17.07V16.44h17.07v74.67Z"/>
        <path d="M570.05,65.51v12.27c0,7.36-5.97,13.33-13.33,13.33h-26.14c-7.36,0-13.33-5.97-13.33-13.33V29.77c0-7.36,5.97-13.33,13.33-13.33h26.14c7.36,0,13.33,5.97,13.33,13.33v12.27h-17.07v-8.43h-18.67v40.43h18.67v-8.53h17.07Z"/>
        <path d="M597.14,33.61v11.63h21.44v17.07h-21.44v11.73h29.87v17.07h-46.94V16.44h46.94v17.17h-29.87Z"/>
      </g>
      <g>
        <path d="M635.18,0v2.52h-2.63v8.44h-2.5V2.52h-2.63V0h7.77Z"/>
        <path d="M645.65,0v10.96h-2.5v-4.9l-1.6,3.85h-.8l-1.6-3.85v4.9h-2.5V0h2.5l1.99,4.81,2-4.81h2.5Z"/>
      </g>
    </g>
  </g>
</svg>